<svg height="512" viewBox="0 0 512 512" width="512" xmlns="http://www.w3.org/2000/svg"><g><path fill="#FFFFFF" d="m473.99 291.7a111.542 111.542 0 0 0 -71.15-35.18 7.869 7.869 0 0 0 -2.84-.52h-112v-24a8 8 0 0 0 -8-8h-16v-8a8.011 8.011 0 0 1 8-8h40a24 24 0 0 0 0-48h-128a8.011 8.011 0 0 1 -8-8v-8a8.011 8.011 0 0 1 8-8h224a24.032 24.032 0 0 0 24-24v-8a24.032 24.032 0 0 0 -24-24h-136a8.011 8.011 0 0 1 -8-8v-8a8 8 0 0 0 -16 0v8a24.032 24.032 0 0 0 24 24h136a8.011 8.011 0 0 1 8 8v8a8.011 8.011 0 0 1 -8 8h-224a24.032 24.032 0 0 0 -24 24v8a24.032 24.032 0 0 0 24 24h128a8 8 0 0 1 0 16h-40a24.032 24.032 0 0 0 -24 24v8h-16a8 8 0 0 0 -8 8v24h-112a7.869 7.869 0 0 0 -2.84.52 112 112 0 1 0 112.06 159.48h69.56a112.012 112.012 0 1 0 183.21-124.3zm-233.99-51.7h32v16h-32zm152 224a95.8 95.8 0 0 1 -88.64-59.08 7.99 7.99 0 0 0 -7.38-4.92h-79.96a7.99 7.99 0 0 0 -7.38 4.92 96.012 96.012 0 1 1 -96.03-132.64 8.3 8.3 0 0 0 1.58-.28h283.62a8.3 8.3 0 0 0 1.58.28 96 96 0 0 1 -7.39 191.72z"/><path fill="#FFFFFF" d="m160 344h-24v-24a8 8 0 0 0 -8-8h-32a8 8 0 0 0 -8 8v24h-24a8 8 0 0 0 -8 8v32a8 8 0 0 0 8 8h24v24a8 8 0 0 0 8 8h32a8 8 0 0 0 8-8v-24h24a8 8 0 0 0 8-8v-32a8 8 0 0 0 -8-8zm-8 32h-24a8 8 0 0 0 -8 8v24h-16v-24a8 8 0 0 0 -8-8h-24v-16h24a8 8 0 0 0 8-8v-24h16v24a8 8 0 0 0 8 8h24z"/><path fill="#FFFFFF" d="m384 368a24 24 0 1 0 -24 24 24.027 24.027 0 0 0 24-24zm-24 8a8 8 0 1 1 8-8 8.009 8.009 0 0 1 -8 8z"/><path fill="#FFFFFF" d="m408 352a24 24 0 1 0 -24-24 24.027 24.027 0 0 0 24 24zm0-32a8 8 0 1 1 -8 8 8.009 8.009 0 0 1 8-8z"/><path fill="#FFFFFF" d="m400 384a24 24 0 1 0 24 24 24.027 24.027 0 0 0 -24-24zm0 32a8 8 0 1 1 8-8 8.009 8.009 0 0 1 -8 8z"/><path fill="#FFFFFF" d="m448 344a24 24 0 1 0 24 24 24.027 24.027 0 0 0 -24-24zm0 32a8 8 0 1 1 8-8 8.009 8.009 0 0 1 -8 8z"/><path fill="#FFFFFF" d="m232 360h-32a8 8 0 0 0 0 16h32a8 8 0 0 0 0-16z"/><path fill="#FFFFFF" d="m312 360h-32a8 8 0 0 0 0 16h32a8 8 0 0 0 0-16z"/><path fill="#FFFFFF" d="m312 288h-112a8 8 0 0 0 -8 8v32a8 8 0 0 0 8 8h112a8 8 0 0 0 8-8v-32a8 8 0 0 0 -8-8zm-8 32h-96v-16h96z"/><path fill="#FFFFFF" d="m256 48a8 8 0 0 0 8-8v-8a8 8 0 0 0 -16 0v8a8 8 0 0 0 8 8z"/></g></svg>
